<svg width="28" height="28" viewBox="0 0 28 28" fill="none" xmlns="http://www.w3.org/2000/svg">
<path d="M19.8332 21C20.452 21 21.0455 21.2458 21.4831 21.6834C21.9207 22.121 22.1665 22.7145 22.1665 23.3333C22.1665 23.9522 21.9207 24.5457 21.4831 24.9833C21.0455 25.4208 20.452 25.6667 19.8332 25.6667C19.2143 25.6667 18.6208 25.4208 18.1833 24.9833C17.7457 24.5457 17.4998 23.9522 17.4998 23.3333C17.4998 22.0383 18.5382 21 19.8332 21ZM1.1665 2.33333H4.9815L6.07817 4.66667H23.3332C23.6426 4.66667 23.9393 4.78958 24.1581 5.00838C24.3769 5.22717 24.4998 5.52391 24.4998 5.83333C24.4998 6.03167 24.4415 6.23 24.3598 6.41667L20.1832 13.965C19.7865 14.6767 19.0165 15.1667 18.1415 15.1667H9.44984L8.39984 17.0683L8.36484 17.2083C8.36484 17.2857 8.39557 17.3599 8.45026 17.4146C8.50496 17.4693 8.57915 17.5 8.6565 17.5H22.1665V19.8333H8.1665C7.54767 19.8333 6.95417 19.5875 6.51659 19.1499C6.079 18.7123 5.83317 18.1188 5.83317 17.5C5.83317 17.0917 5.93817 16.7067 6.11317 16.38L7.69984 13.5217L3.49984 4.66667H1.1665V2.33333ZM8.1665 21C8.78534 21 9.37883 21.2458 9.81642 21.6834C10.254 22.121 10.4998 22.7145 10.4998 23.3333C10.4998 23.9522 10.254 24.5457 9.81642 24.9833C9.37883 25.4208 8.78534 25.6667 8.1665 25.6667C7.54767 25.6667 6.95417 25.4208 6.51659 24.9833C6.079 24.5457 5.83317 23.9522 5.83317 23.3333C5.83317 22.0383 6.8715 21 8.1665 21ZM18.6665 12.8333L21.9098 7H7.16317L9.9165 12.8333H18.6665Z" fill="#010101"/>
<path d="M19.8332 21C20.452 21 21.0455 21.2458 21.4831 21.6834C21.9207 22.121 22.1665 22.7145 22.1665 23.3333C22.1665 23.9522 21.9207 24.5457 21.4831 24.9833C21.0455 25.4208 20.452 25.6667 19.8332 25.6667C19.2143 25.6667 18.6208 25.4208 18.1833 24.9833C17.7457 24.5457 17.4998 23.9522 17.4998 23.3333C17.4998 22.0383 18.5382 21 19.8332 21ZM1.1665 2.33333H4.9815L6.07817 4.66667H23.3332C23.6426 4.66667 23.9393 4.78958 24.1581 5.00838C24.3769 5.22717 24.4998 5.52391 24.4998 5.83333C24.4998 6.03167 24.4415 6.23 24.3598 6.41667L20.1832 13.965C19.7865 14.6767 19.0165 15.1667 18.1415 15.1667H9.44984L8.39984 17.0683L8.36484 17.2083C8.36484 17.2857 8.39557 17.3599 8.45026 17.4146C8.50496 17.4693 8.57915 17.5 8.6565 17.5H22.1665V19.8333H8.1665C7.54767 19.8333 6.95417 19.5875 6.51659 19.1499C6.079 18.7123 5.83317 18.1188 5.83317 17.5C5.83317 17.0917 5.93817 16.7067 6.11317 16.38L7.69984 13.5217L3.49984 4.66667H1.1665V2.33333ZM8.1665 21C8.78534 21 9.37883 21.2458 9.81642 21.6834C10.254 22.121 10.4998 22.7145 10.4998 23.3333C10.4998 23.9522 10.254 24.5457 9.81642 24.9833C9.37883 25.4208 8.78534 25.6667 8.1665 25.6667C7.54767 25.6667 6.95417 25.4208 6.51659 24.9833C6.079 24.5457 5.83317 23.9522 5.83317 23.3333C5.83317 22.0383 6.8715 21 8.1665 21ZM18.6665 12.8333L21.9098 7H7.16317L9.9165 12.8333H18.6665Z" fill="black" fill-opacity="0.2"/>
<path d="M19.8332 21C20.452 21 21.0455 21.2458 21.4831 21.6834C21.9207 22.121 22.1665 22.7145 22.1665 23.3333C22.1665 23.9522 21.9207 24.5457 21.4831 24.9833C21.0455 25.4208 20.452 25.6667 19.8332 25.6667C19.2143 25.6667 18.6208 25.4208 18.1833 24.9833C17.7457 24.5457 17.4998 23.9522 17.4998 23.3333C17.4998 22.0383 18.5382 21 19.8332 21ZM1.1665 2.33333H4.9815L6.07817 4.66667H23.3332C23.6426 4.66667 23.9393 4.78958 24.1581 5.00838C24.3769 5.22717 24.4998 5.52391 24.4998 5.83333C24.4998 6.03167 24.4415 6.23 24.3598 6.41667L20.1832 13.965C19.7865 14.6767 19.0165 15.1667 18.1415 15.1667H9.44984L8.39984 17.0683L8.36484 17.2083C8.36484 17.2857 8.39557 17.3599 8.45026 17.4146C8.50496 17.4693 8.57915 17.5 8.6565 17.5H22.1665V19.8333H8.1665C7.54767 19.8333 6.95417 19.5875 6.51659 19.1499C6.079 18.7123 5.83317 18.1188 5.83317 17.5C5.83317 17.0917 5.93817 16.7067 6.11317 16.38L7.69984 13.5217L3.49984 4.66667H1.1665V2.33333ZM8.1665 21C8.78534 21 9.37883 21.2458 9.81642 21.6834C10.254 22.121 10.4998 22.7145 10.4998 23.3333C10.4998 23.9522 10.254 24.5457 9.81642 24.9833C9.37883 25.4208 8.78534 25.6667 8.1665 25.6667C7.54767 25.6667 6.95417 25.4208 6.51659 24.9833C6.079 24.5457 5.83317 23.9522 5.83317 23.3333C5.83317 22.0383 6.8715 21 8.1665 21ZM18.6665 12.8333L21.9098 7H7.16317L9.9165 12.8333H18.6665Z" fill="black" fill-opacity="0.2"/>
<path d="M19.8332 21C20.452 21 21.0455 21.2458 21.4831 21.6834C21.9207 22.121 22.1665 22.7145 22.1665 23.3333C22.1665 23.9522 21.9207 24.5457 21.4831 24.9833C21.0455 25.4208 20.452 25.6667 19.8332 25.6667C19.2143 25.6667 18.6208 25.4208 18.1833 24.9833C17.7457 24.5457 17.4998 23.9522 17.4998 23.3333C17.4998 22.0383 18.5382 21 19.8332 21ZM1.1665 2.33333H4.9815L6.07817 4.66667H23.3332C23.6426 4.66667 23.9393 4.78958 24.1581 5.00838C24.3769 5.22717 24.4998 5.52391 24.4998 5.83333C24.4998 6.03167 24.4415 6.23 24.3598 6.41667L20.1832 13.965C19.7865 14.6767 19.0165 15.1667 18.1415 15.1667H9.44984L8.39984 17.0683L8.36484 17.2083C8.36484 17.2857 8.39557 17.3599 8.45026 17.4146C8.50496 17.4693 8.57915 17.5 8.6565 17.5H22.1665V19.8333H8.1665C7.54767 19.8333 6.95417 19.5875 6.51659 19.1499C6.079 18.7123 5.83317 18.1188 5.83317 17.5C5.83317 17.0917 5.93817 16.7067 6.11317 16.38L7.69984 13.5217L3.49984 4.66667H1.1665V2.33333ZM8.1665 21C8.78534 21 9.37883 21.2458 9.81642 21.6834C10.254 22.121 10.4998 22.7145 10.4998 23.3333C10.4998 23.9522 10.254 24.5457 9.81642 24.9833C9.37883 25.4208 8.78534 25.6667 8.1665 25.6667C7.54767 25.6667 6.95417 25.4208 6.51659 24.9833C6.079 24.5457 5.83317 23.9522 5.83317 23.3333C5.83317 22.0383 6.8715 21 8.1665 21ZM18.6665 12.8333L21.9098 7H7.16317L9.9165 12.8333H18.6665Z" fill="black" fill-opacity="0.2"/>
<path d="M19.8332 21C20.452 21 21.0455 21.2458 21.4831 21.6834C21.9207 22.121 22.1665 22.7145 22.1665 23.3333C22.1665 23.9522 21.9207 24.5457 21.4831 24.9833C21.0455 25.4208 20.452 25.6667 19.8332 25.6667C19.2143 25.6667 18.6208 25.4208 18.1833 24.9833C17.7457 24.5457 17.4998 23.9522 17.4998 23.3333C17.4998 22.0383 18.5382 21 19.8332 21ZM1.1665 2.33333H4.9815L6.07817 4.66667H23.3332C23.6426 4.66667 23.9393 4.78958 24.1581 5.00838C24.3769 5.22717 24.4998 5.52391 24.4998 5.83333C24.4998 6.03167 24.4415 6.23 24.3598 6.41667L20.1832 13.965C19.7865 14.6767 19.0165 15.1667 18.1415 15.1667H9.44984L8.39984 17.0683L8.36484 17.2083C8.36484 17.2857 8.39557 17.3599 8.45026 17.4146C8.50496 17.4693 8.57915 17.5 8.6565 17.5H22.1665V19.8333H8.1665C7.54767 19.8333 6.95417 19.5875 6.51659 19.1499C6.079 18.7123 5.83317 18.1188 5.83317 17.5C5.83317 17.0917 5.93817 16.7067 6.11317 16.38L7.69984 13.5217L3.49984 4.66667H1.1665V2.33333ZM8.1665 21C8.78534 21 9.37883 21.2458 9.81642 21.6834C10.254 22.121 10.4998 22.7145 10.4998 23.3333C10.4998 23.9522 10.254 24.5457 9.81642 24.9833C9.37883 25.4208 8.78534 25.6667 8.1665 25.6667C7.54767 25.6667 6.95417 25.4208 6.51659 24.9833C6.079 24.5457 5.83317 23.9522 5.83317 23.3333C5.83317 22.0383 6.8715 21 8.1665 21ZM18.6665 12.8333L21.9098 7H7.16317L9.9165 12.8333H18.6665Z" fill="black" fill-opacity="0.2"/>
<path d="M19.8332 21C20.452 21 21.0455 21.2458 21.4831 21.6834C21.9207 22.121 22.1665 22.7145 22.1665 23.3333C22.1665 23.9522 21.9207 24.5457 21.4831 24.9833C21.0455 25.4208 20.452 25.6667 19.8332 25.6667C19.2143 25.6667 18.6208 25.4208 18.1833 24.9833C17.7457 24.5457 17.4998 23.9522 17.4998 23.3333C17.4998 22.0383 18.5382 21 19.8332 21ZM1.1665 2.33333H4.9815L6.07817 4.66667H23.3332C23.6426 4.66667 23.9393 4.78958 24.1581 5.00838C24.3769 5.22717 24.4998 5.52391 24.4998 5.83333C24.4998 6.03167 24.4415 6.23 24.3598 6.41667L20.1832 13.965C19.7865 14.6767 19.0165 15.1667 18.1415 15.1667H9.44984L8.39984 17.0683L8.36484 17.2083C8.36484 17.2857 8.39557 17.3599 8.45026 17.4146C8.50496 17.4693 8.57915 17.5 8.6565 17.5H22.1665V19.8333H8.1665C7.54767 19.8333 6.95417 19.5875 6.51659 19.1499C6.079 18.7123 5.83317 18.1188 5.83317 17.5C5.83317 17.0917 5.93817 16.7067 6.11317 16.38L7.69984 13.5217L3.49984 4.66667H1.1665V2.33333ZM8.1665 21C8.78534 21 9.37883 21.2458 9.81642 21.6834C10.254 22.121 10.4998 22.7145 10.4998 23.3333C10.4998 23.9522 10.254 24.5457 9.81642 24.9833C9.37883 25.4208 8.78534 25.6667 8.1665 25.6667C7.54767 25.6667 6.95417 25.4208 6.51659 24.9833C6.079 24.5457 5.83317 23.9522 5.83317 23.3333C5.83317 22.0383 6.8715 21 8.1665 21ZM18.6665 12.8333L21.9098 7H7.16317L9.9165 12.8333H18.6665Z" fill="black" fill-opacity="0.2"/>
</svg>
