<svg width="80" height="80" viewBox="0 0 80 80" fill="none" xmlns="http://www.w3.org/2000/svg">
<path d="M56.6668 60C58.4349 60 60.1306 60.7024 61.3809 61.9526C62.6311 63.2029 63.3335 64.8985 63.3335 66.6667C63.3335 68.4348 62.6311 70.1305 61.3809 71.3807C60.1306 72.6309 58.4349 73.3333 56.6668 73.3333C54.8987 73.3333 53.203 72.6309 51.9528 71.3807C50.7025 70.1305 50.0002 68.4348 50.0002 66.6667C50.0002 62.9667 52.9668 60 56.6668 60ZM3.3335 6.66666H14.2335L17.3668 13.3333H66.6668C67.5509 13.3333 68.3987 13.6845 69.0239 14.3096C69.649 14.9348 70.0002 15.7826 70.0002 16.6667C70.0002 17.2333 69.8335 17.8 69.6002 18.3333L57.6668 39.9C56.5335 41.9333 54.3335 43.3333 51.8335 43.3333H27.0002L24.0002 48.7667L23.9002 49.1667C23.9002 49.3877 23.988 49.5996 24.1442 49.7559C24.3005 49.9122 24.5125 50 24.7335 50H63.3335V56.6667H23.3335C21.5654 56.6667 19.8697 55.9643 18.6195 54.714C17.3692 53.4638 16.6668 51.7681 16.6668 50C16.6668 48.8333 16.9668 47.7333 17.4668 46.8L22.0002 38.6333L10.0002 13.3333H3.3335V6.66666ZM23.3335 60C25.1016 60 26.7973 60.7024 28.0475 61.9526C29.2978 63.2029 30.0002 64.8985 30.0002 66.6667C30.0002 68.4348 29.2978 70.1305 28.0475 71.3807C26.7973 72.6309 25.1016 73.3333 23.3335 73.3333C21.5654 73.3333 19.8697 72.6309 18.6195 71.3807C17.3692 70.1305 16.6668 68.4348 16.6668 66.6667C16.6668 62.9667 19.6335 60 23.3335 60ZM53.3335 36.6667L62.6002 20H20.4668L28.3335 36.6667H53.3335Z" fill="#FF9493"/>
</svg>
