<svg width="25" height="24" viewBox="0 0 25 24" fill="none" xmlns="http://www.w3.org/2000/svg">
<path d="M12.7085 17C12.9918 17 13.2295 16.904 13.4215 16.712C13.6135 16.52 13.7092 16.2827 13.7085 16C13.7078 15.7173 13.6118 15.48 13.4205 15.288C13.2292 15.096 12.9918 15 12.7085 15C12.4252 15 12.1878 15.096 11.9965 15.288C11.8052 15.48 11.7092 15.7173 11.7085 16C11.7078 16.2827 11.8038 16.5203 11.9965 16.713C12.1892 16.9057 12.4265 17.0013 12.7085 17ZM11.7085 13H13.7085V7H11.7085V13ZM12.7085 22C11.3252 22 10.0252 21.7373 8.8085 21.212C7.59183 20.6867 6.5335 19.9743 5.6335 19.075C4.7335 18.1757 4.02116 17.1173 3.4965 15.9C2.97183 14.6827 2.70916 13.3827 2.7085 12C2.70783 10.6173 2.9705 9.31733 3.4965 8.1C4.0225 6.88267 4.73483 5.82433 5.6335 4.925C6.53216 4.02567 7.5905 3.31333 8.8085 2.788C10.0265 2.26267 11.3265 2 12.7085 2C14.0905 2 15.3905 2.26267 16.6085 2.788C17.8265 3.31333 18.8848 4.02567 19.7835 4.925C20.6822 5.82433 21.3948 6.88267 21.9215 8.1C22.4482 9.31733 22.7105 10.6173 22.7085 12C22.7065 13.3827 22.4438 14.6827 21.9205 15.9C21.3972 17.1173 20.6848 18.1757 19.7835 19.075C18.8822 19.9743 17.8238 20.687 16.6085 21.213C15.3932 21.739 14.0932 22.0013 12.7085 22ZM12.7085 20C14.9418 20 16.8335 19.225 18.3835 17.675C19.9335 16.125 20.7085 14.2333 20.7085 12C20.7085 9.76667 19.9335 7.875 18.3835 6.325C16.8335 4.775 14.9418 4 12.7085 4C10.4752 4 8.5835 4.775 7.0335 6.325C5.4835 7.875 4.7085 9.76667 4.7085 12C4.7085 14.2333 5.4835 16.125 7.0335 17.675C8.5835 19.225 10.4752 20 12.7085 20Z" fill="#DE1135"/>
</svg>
